<svg width="92" height="49" viewBox="0 0 92 49" fill="none" xmlns="http://www.w3.org/2000/svg">
<path d="M40.32 0.128002V48H33.344V23.936H19.52V48H12.544V3.392C10.1973 4.33067 8.34133 5.84534 6.976 7.936C5.65333 9.984 4.992 12.4373 4.992 15.296C4.992 16.7893 5.07733 17.984 5.248 18.88C5.46133 19.776 5.71733 20.5013 6.016 21.056C6.31467 21.6107 6.63467 22.016 6.976 22.272C7.31733 22.528 7.63733 22.72 7.936 22.848C6.82667 22.848 5.78133 22.72 4.8 22.464C3.86133 22.1653 3.02933 21.696 2.304 21.056C1.62133 20.416 1.06667 19.6053 0.64 18.624C0.213333 17.6 0 16.3627 0 14.912C0 12.9067 0.469333 11.008 1.408 9.216C2.34667 7.38133 3.60533 5.78133 5.184 4.416C6.76267 3.05067 8.55467 1.984 10.56 1.216C12.608 0.405334 14.72 0 16.896 0C17.3653 0 17.8133 0.0213343 18.24 0.064003C18.6667 0.064003 19.0933 0.085336 19.52 0.128002V20.16H33.344V2.112L40.32 0.128002Z" fill="black"/>
<path d="M40.32 0.128002V48H33.344V23.936H19.52V48H12.544V3.392C10.1973 4.33067 8.34133 5.84534 6.976 7.936C5.65333 9.984 4.992 12.4373 4.992 15.296C4.992 16.7893 5.07733 17.984 5.248 18.88C5.46133 19.776 5.71733 20.5013 6.016 21.056C6.31467 21.6107 6.63467 22.016 6.976 22.272C7.31733 22.528 7.63733 22.72 7.936 22.848C6.82667 22.848 5.78133 22.72 4.8 22.464C3.86133 22.1653 3.02933 21.696 2.304 21.056C1.62133 20.416 1.06667 19.6053 0.64 18.624C0.213333 17.6 0 16.3627 0 14.912C0 12.9067 0.469333 11.008 1.408 9.216C2.34667 7.38133 3.60533 5.78133 5.184 4.416C6.76267 3.05067 8.55467 1.984 10.56 1.216C12.608 0.405334 14.72 0 16.896 0C17.3653 0 17.8133 0.0213343 18.24 0.064003C18.6667 0.064003 19.0933 0.085336 19.52 0.128002V20.16H33.344V2.112L40.32 0.128002Z" fill="black" fill-opacity="0.2"/>
<path d="M71.4455 8.832C71.4455 10.5387 71.0828 11.8613 70.3575 12.8C69.6748 13.7387 68.7575 14.208 67.6055 14.208C67.0082 14.208 66.4962 14.1013 66.0695 13.888C65.6855 13.6747 65.2802 13.3333 64.8535 12.864C65.4508 12.4373 65.8988 11.8187 66.1975 11.008C66.5388 10.1973 66.7095 9.344 66.7095 8.448C66.7095 7.72267 66.5815 6.99733 66.3255 6.272C66.1122 5.54667 65.7495 4.90667 65.2375 4.352C64.7255 3.75467 64.0855 3.28533 63.3175 2.944C62.5495 2.56 61.6322 2.368 60.5655 2.368C59.4562 2.368 58.4535 2.58133 57.5575 3.008C56.7042 3.392 55.9788 3.94667 55.3815 4.672C54.8268 5.35467 54.4002 6.16534 54.1015 7.104C53.8028 8.04267 53.6535 9.04533 53.6535 10.112C53.6535 12.16 54.1442 13.8027 55.1255 15.04C56.1495 16.2773 57.4082 17.3227 58.9015 18.176C60.3948 19.0293 62.0162 19.84 63.7655 20.608C65.5575 21.376 67.2002 22.336 68.6935 23.488C70.1868 24.5973 71.4242 26.0267 72.4055 27.776C73.4295 29.4827 73.9415 31.7653 73.9415 34.624C73.9415 37.184 73.5148 39.3813 72.6615 41.216C71.8082 43.008 70.6775 44.4587 69.2695 45.568C67.9042 46.6773 66.3255 47.488 64.5335 48C62.7415 48.512 60.9068 48.768 59.0295 48.768C57.3655 48.768 55.7228 48.576 54.1015 48.192C52.4802 47.808 51.0295 47.2107 49.7495 46.4C48.4695 45.5467 47.4242 44.48 46.6135 43.2C45.8455 41.8773 45.4615 40.2987 45.4615 38.464C45.4615 37.3973 45.6108 36.3093 45.9095 35.2C46.2082 34.0907 46.6348 33.088 47.1895 32.192C47.7868 31.296 48.5122 30.5707 49.3655 30.016C50.2615 29.4187 51.2855 29.12 52.4375 29.12C53.3762 29.12 54.1655 29.376 54.8055 29.888C55.4882 30.4 56.0855 31.36 56.5975 32.768C55.5735 32.8107 54.7202 33.024 54.0375 33.408C53.3975 33.792 52.8855 34.2613 52.5015 34.816C52.1175 35.3707 51.8402 35.968 51.6695 36.608C51.5415 37.248 51.4775 37.8453 51.4775 38.4C51.4775 39.552 51.7335 40.5547 52.2455 41.408C52.7575 42.2613 53.3975 42.9867 54.1655 43.584C54.9762 44.1387 55.8295 44.5653 56.7255 44.864C57.6642 45.12 58.5602 45.248 59.4135 45.248C61.3762 45.248 62.9975 44.5013 64.2775 43.008C65.5575 41.5147 66.1975 39.36 66.1975 36.544C66.1975 34.1547 65.7282 32.2773 64.7895 30.912C63.8935 29.504 62.7415 28.3307 61.3335 27.392C59.9255 26.4533 58.4108 25.6427 56.7895 24.96C55.2108 24.2773 53.7175 23.4667 52.3095 22.528C50.9015 21.5893 49.7282 20.3947 48.7895 18.944C47.8935 17.4507 47.4455 15.4667 47.4455 12.992C47.4455 10.8587 47.8082 8.98134 48.5335 7.36C49.2588 5.73867 50.1975 4.39467 51.3495 3.328C52.5442 2.21867 53.9095 1.408 55.4455 0.896C57.0242 0.341335 58.6455 0.064003 60.3095 0.064003C61.0348 0.064003 62.0162 0.149335 63.2535 0.32C64.5335 0.490667 65.7708 0.874667 66.9655 1.472C68.2028 2.06933 69.2482 2.96533 70.1015 4.16C70.9975 5.312 71.4455 6.86933 71.4455 8.832Z" fill="black"/>
<path d="M71.4455 8.832C71.4455 10.5387 71.0828 11.8613 70.3575 12.8C69.6748 13.7387 68.7575 14.208 67.6055 14.208C67.0082 14.208 66.4962 14.1013 66.0695 13.888C65.6855 13.6747 65.2802 13.3333 64.8535 12.864C65.4508 12.4373 65.8988 11.8187 66.1975 11.008C66.5388 10.1973 66.7095 9.344 66.7095 8.448C66.7095 7.72267 66.5815 6.99733 66.3255 6.272C66.1122 5.54667 65.7495 4.90667 65.2375 4.352C64.7255 3.75467 64.0855 3.28533 63.3175 2.944C62.5495 2.56 61.6322 2.368 60.5655 2.368C59.4562 2.368 58.4535 2.58133 57.5575 3.008C56.7042 3.392 55.9788 3.94667 55.3815 4.672C54.8268 5.35467 54.4002 6.16534 54.1015 7.104C53.8028 8.04267 53.6535 9.04533 53.6535 10.112C53.6535 12.16 54.1442 13.8027 55.1255 15.04C56.1495 16.2773 57.4082 17.3227 58.9015 18.176C60.3948 19.0293 62.0162 19.84 63.7655 20.608C65.5575 21.376 67.2002 22.336 68.6935 23.488C70.1868 24.5973 71.4242 26.0267 72.4055 27.776C73.4295 29.4827 73.9415 31.7653 73.9415 34.624C73.9415 37.184 73.5148 39.3813 72.6615 41.216C71.8082 43.008 70.6775 44.4587 69.2695 45.568C67.9042 46.6773 66.3255 47.488 64.5335 48C62.7415 48.512 60.9068 48.768 59.0295 48.768C57.3655 48.768 55.7228 48.576 54.1015 48.192C52.4802 47.808 51.0295 47.2107 49.7495 46.4C48.4695 45.5467 47.4242 44.48 46.6135 43.2C45.8455 41.8773 45.4615 40.2987 45.4615 38.464C45.4615 37.3973 45.6108 36.3093 45.9095 35.2C46.2082 34.0907 46.6348 33.088 47.1895 32.192C47.7868 31.296 48.5122 30.5707 49.3655 30.016C50.2615 29.4187 51.2855 29.12 52.4375 29.12C53.3762 29.12 54.1655 29.376 54.8055 29.888C55.4882 30.4 56.0855 31.36 56.5975 32.768C55.5735 32.8107 54.7202 33.024 54.0375 33.408C53.3975 33.792 52.8855 34.2613 52.5015 34.816C52.1175 35.3707 51.8402 35.968 51.6695 36.608C51.5415 37.248 51.4775 37.8453 51.4775 38.4C51.4775 39.552 51.7335 40.5547 52.2455 41.408C52.7575 42.2613 53.3975 42.9867 54.1655 43.584C54.9762 44.1387 55.8295 44.5653 56.7255 44.864C57.6642 45.12 58.5602 45.248 59.4135 45.248C61.3762 45.248 62.9975 44.5013 64.2775 43.008C65.5575 41.5147 66.1975 39.36 66.1975 36.544C66.1975 34.1547 65.7282 32.2773 64.7895 30.912C63.8935 29.504 62.7415 28.3307 61.3335 27.392C59.9255 26.4533 58.4108 25.6427 56.7895 24.96C55.2108 24.2773 53.7175 23.4667 52.3095 22.528C50.9015 21.5893 49.7282 20.3947 48.7895 18.944C47.8935 17.4507 47.4455 15.4667 47.4455 12.992C47.4455 10.8587 47.8082 8.98134 48.5335 7.36C49.2588 5.73867 50.1975 4.39467 51.3495 3.328C52.5442 2.21867 53.9095 1.408 55.4455 0.896C57.0242 0.341335 58.6455 0.064003 60.3095 0.064003C61.0348 0.064003 62.0162 0.149335 63.2535 0.32C64.5335 0.490667 65.7708 0.874667 66.9655 1.472C68.2028 2.06933 69.2482 2.96533 70.1015 4.16C70.9975 5.312 71.4455 6.86933 71.4455 8.832Z" fill="black" fill-opacity="0.2"/>
<path d="M78.496 42.144C78.496 40.416 79.104 38.912 80.32 37.632C81.536 36.352 83.04 35.712 84.832 35.712C86.56 35.712 88.064 36.352 89.344 37.632C90.624 38.912 91.264 40.416 91.264 42.144C91.264 43.936 90.624 45.44 89.344 46.656C88.064 47.872 86.56 48.48 84.832 48.48C83.04 48.48 81.536 47.872 80.32 46.656C79.104 45.44 78.496 43.936 78.496 42.144Z" fill="black"/>
<path d="M78.496 42.144C78.496 40.416 79.104 38.912 80.32 37.632C81.536 36.352 83.04 35.712 84.832 35.712C86.56 35.712 88.064 36.352 89.344 37.632C90.624 38.912 91.264 40.416 91.264 42.144C91.264 43.936 90.624 45.44 89.344 46.656C88.064 47.872 86.56 48.48 84.832 48.48C83.04 48.48 81.536 47.872 80.32 46.656C79.104 45.44 78.496 43.936 78.496 42.144Z" fill="black" fill-opacity="0.2"/>
</svg>
